<?xml version="1.0" encoding="UTF-8" standalone="no"?>
<svg
   version="1.1"
   id="Layer_1"
   x="0px"
   y="0px"
   width="680"
   viewBox="150 140 680 750"
   xml:space="preserve"
   height="750"
   xmlns:inkscape="http://www.inkscape.org/namespaces/inkscape"
   xmlns:sodipodi="http://sodipodi.sourceforge.net/DTD/sodipodi-0.dtd"
   xmlns="http://www.w3.org/2000/svg"
   xmlns:svg="http://www.w3.org/2000/svg"><defs
   id="defs75" /><sodipodi:namedview
   id="namedview75"
   pagecolor="#ffffff"
   bordercolor="#000000"
   borderopacity="0.25"
   inkscape:showpageshadow="2"
   inkscape:pageopacity="0.0"
   inkscape:pagecheckerboard="0"
   inkscape:deskcolor="#d1d1d1"
   inkscape:zoom="0.70710678"
   inkscape:cx="806.80883"
   inkscape:cy="617.30422"
   inkscape:window-width="2560"
   inkscape:window-height="1369"
   inkscape:window-x="1912"
   inkscape:window-y="-8"
   inkscape:window-maximized="1"
   inkscape:current-layer="Layer_1"
   inkscape:export-bgcolor="#ffffff00"><inkscape:page
     x="0"
     y="0"
     width="1048576"
     height="1048576"
     id="page2"
     margin="0"
     bleed="0" /></sodipodi:namedview>

<path
   fill="#122326"
   opacity="1"
   stroke="none"
   d="m 236.98505,179.01146 c 3.12619,-5.99031 5.44532,-12.63146 9.60443,-17.7888 4.20106,-5.2094 9.74795,-9.81461 15.60849,-13.04697 4.40637,-2.43033 10.20553,-2.58092 15.4494,-3.17828 5.24902,-0.59797 10.62866,-1.0344 15.85953,-0.5512 6.15695,0.56876 12.33398,1.78026 18.29522,3.4516 20.3638,5.70941 39.29529,14.6694 56.31198,27.20455 7.54279,5.55629 14.11243,12.43531 21.10117,18.73899 0.60761,0.54804 0.97992,1.35244 1.57275,1.922 5.41855,5.20564 7.66666,5.25176 14.77463,2.52211 9.09638,-3.49325 18.39008,-6.49187 27.67426,-9.46794 3.89023,-1.24704 7.9743,-1.88922 12.41537,-2.67772 0.52454,0.1834 0.60395,0.23813 0.68335,0.29286 -0.11603,-0.14135 -0.23202,-0.2827 -0.34805,-0.42404 9.09878,-1.91511 18.20761,-3.78422 27.2908,-5.77063 3.1149,-0.6812 6.15863,-1.68277 9.24808,-2.48732 2.21347,-0.57646 4.45151,-1.05792 6.67416,-1.60001 19.78342,-4.82499 33.74896,-16.65161 42.24341,-35.0792 2.35284,-5.10425 7.93555,-8.47551 13.19385,-8.04193 6.10303,0.50325 11.15771,5.56877 13.38269,12.2635 2.18274,6.56746 -1.50037,11.93587 -3.42578,17.32422 -2.39392,6.69935 -6.83814,12.66607 -10.49555,19.59657 -15.84411,26.88309 -37.48904,46.34299 -66.32184,57.96074 -8.09323,2.19559 -15.81097,4.409 -23.52871,6.62241 2.92358,-4.38793 6.05865,-7.53264 9.00186,-10.84769 2.91486,-3.2831 5.63614,-6.73804 8.69757,-10.33878 4.14636,-5.04884 8.03744,-9.87652 11.92853,-14.7042 -34.72009,2.37403 -66.64218,11.85264 -96.65332,27.08535 -5.11463,-6.10179 -9.91187,-12.26463 -15.16321,-18.0126 -21.08261,-23.07645 -46.68182,-38.76192 -77.09323,-46.33992 -15.92966,-3.96939 -25.34171,0.65912 -29.87195,16.34578 -3.29825,11.42079 -5.3743,23.33513 -6.6171,35.1741 -1.63354,15.56125 0.30457,30.98869 5.48883,46.26061 1.5253,10.20269 6.49808,18.58532 10.77039,28.03595 6.01971,-7.89447 11.43344,-14.99418 16.97058,-22.25577 -0.54294,-1.22461 -1.19055,-2.55103 -1.729,-3.92035 -5.39182,-13.71149 -8.35636,-27.94206 -9.39911,-42.63196 -0.78012,-10.98935 -1.72196,-22.11326 5.61709,-31.80384 1.14227,-2.61769 7.36889,-1.37008 11.21134,-0.84074 5.10013,2.06717 9.84436,4.03504 14.8327,6.23696 5.31741,3.43402 10.39075,6.63399 15.66919,10.11038 10.8985,10.3864 21.67465,20.41154 32.20837,30.68524 1.87369,1.82747 3.21713,4.25757 4.30326,6.87543 -3.04514,2.30272 -6.53928,4.56384 -9.08301,6.90915 -11.17361,10.30212 -22.21023,20.75271 -33.46335,31.44107 -4.63254,4.72238 -9.30749,8.96319 -13.53033,13.61453 -29.83826,32.86578 -53.00205,70.25971 -73.83808,109.22324 -4.45144,8.32425 -9.01222,16.58999 -13.76474,25.11654 -6.11866,8.66611 -11.48892,17.51441 -17.99307,25.43109 -9.24145,11.24845 -19.40121,21.73877 -28.931,32.75849 -1.2151,1.40518 -5.34187,2.03546 -2.62698,5.85589 10.28157,9.47809 20.48158,18.63123 30.81561,28.0987 46.5209,39.70404 98.47952,69.69867 155.5097,90.56921 67.41056,24.66944 136.89701,32.37976 208.24787,23.26239 48.00781,-6.1344 93.95038,-19.08972 138.01062,-39.11895 46.6474,-21.20539 88.02991,-50.2323 126.38196,-83.85755 6.87475,-6.02746 13.32611,-12.53656 20.0227,-18.7698 1.443,-1.34314 2.53412,-2.43177 -0.30572,-3.77356 -19.30994,-18.0615 -34.52527,-39.02219 -48.96442,-60.94767 -2.64722,-4.93942 -5.29657,-9.53668 -7.9895,-14.10821 -11.9433,-20.27436 -23.89917,-40.54132 -35.93311,-61.14084 -4.44494,-6.8226 -8.6568,-13.42267 -13.198,-19.78781 -13.35119,-18.71378 -27.5437,-36.73749 -44.42974,-52.93109 -0.60151,-0.44928 -0.97675,-0.64997 -1.34571,-0.81241 0.006,0.0382 0.0812,0.0183 0.046,-0.2695 -0.36096,-0.44959 -0.6867,-0.61136 -0.98956,-0.73078 0.0229,0.0424 0.0987,-0.017 10e-4,-0.34369 -2.66071,-2.92935 -5.08368,-5.69003 -7.81128,-8.10693 -10.78058,-9.55246 -21.65668,-18.99713 -32.20245,-28.65896 13.47802,-18.81666 30.49688,-33.21689 50.19854,-45.10311 5.49463,-2.59524 10.65168,-5.1125 16.24964,-7.6414 3.05871,0.0161 8.0202,-0.4562 10.8728,-0.18231 6.34283,3.24565 7.04504,9.41806 7.43689,15.41673 1.31921,20.19688 -2.0069,41.01684 -9.26398,59.95488 -0.77868,2.03183 -2.26599,3.07129 -1.29004,4.42816 4.87659,6.78009 9.69196,13.94479 14.95429,20.44748 l 1.72375,-0.1434 c 3.32428,-9.03534 6.64856,-18.07068 10.1731,-27.41101 1.30151,-5.08448 2.40271,-9.86393 3.61829,-15.0037 0.14684,-1.11142 0.17938,-1.86253 0.3941,-2.93176 0.34045,-1.77492 0.49866,-3.23172 0.74927,-5.1147 0.26586,-2.5856 0.49774,-4.74219 0.60363,-6.90491 0.88868,-18.15773 -0.81817,-36.0126 -7.71484,-52.96217 -5.20392,-12.78937 -13.89606,-17.44575 -26.53137,-14.25369 -29.27802,7.39651 -55.50372,20.5646 -76.69373,42.55494 -7.10754,7.37598 -13.71289,15.23581 -20.38232,22.68956 -26.11401,-13.3939 -53.79767,-22.36834 -83.03809,-28.10139 2.46039,-8.42717 4.8324,-16.55145 7.57471,-24.80429 0.69849,-1.07546 1.02667,-2.02237 1.62775,-3.0672 0.64532,0.002 1.01776,0.10292 1.39019,0.20334 7.30475,1.86215 14.62226,3.67616 21.91089,5.5993 8.08374,2.13292 16.20661,4.15476 24.18628,6.63126 5.03919,1.56392 9.87616,3.80452 14.74799,5.87303 2.65307,1.12646 4.47156,0.47832 6.59204,-1.48259 9.1358,-8.44849 17.92505,-17.42502 27.90173,-24.76733 9.7425,-7.16989 19.9671,-14.05507 32.11975,-17.146 2.85938,-0.72726 5.16406,-3.50107 8.01801,-4.41058 6.81042,-2.17037 14.23089,-2.8646 20.60577,-5.85736 8.75788,-4.1115 17.698,-3.21851 26.65412,-3.26513 9.75585,-0.0508 17.79162,3.70073 25.31292,10.36289 12.61048,11.17 17.90589,25.82368 22.51953,41.08974 0.32911,1.08889 0.46271,2.24989 0.57612,3.38841 0.32104,3.22388 0.0247,6.62892 0.97131,9.64923 3.36865,10.74765 3.53863,21.67757 2.54974,32.70215 -0.62707,6.99122 -1.05621,14.06344 -2.50549,20.90194 -1.87476,8.84574 -4.18884,17.6695 -7.22962,26.17539 -2.64007,7.38507 -6.33465,14.42981 -9.9862,21.4035 -2.3346,4.45853 -5.43823,8.51441 -8.03571,12.50299 8.66944,12.98145 17.55603,25.71189 25.80579,38.8425 5.54626,8.82764 9.97986,18.34662 15.29657,27.32825 5.82397,9.83841 12.03674,19.44919 18.17926,29.09601 7.28693,11.44412 14.34271,23.05801 22.14441,34.14383 5.25006,7.46002 11.26007,14.47882 17.59753,21.05139 5.42517,5.6264 12.07672,10.0531 17.68872,15.52063 8.30609,8.09216 9.60535,15.4718 -1.0017,24.94839 -3.97193,3.54853 -7.01545,8.11591 -10.81702,11.8808 -4.29126,4.24976 -9.01489,8.05921 -13.44916,12.16938 -5.28888,4.90234 -10.24652,10.18664 -15.75525,14.82092 -6.8125,5.73108 -14.03955,10.96985 -21.09582,16.4104 -5.22443,4.0282 -10.37043,8.1662 -15.7165,12.02661 -7.3302,5.29315 -14.75213,10.46619 -22.26,15.50403 -4.6919,3.14831 -5.02228,3.33008 -0.44416,6.42352 12.39472,8.37506 24.98908,16.45557 37.54236,24.59406 1.19055,0.77185 2.6496,1.12957 4.49304,1.88928 1.04362,-9.78908 1.24494,-12.51853 1.69346,-18.43442 0.31384,-6.61594 0.67764,-12.78604 0.48422,-19.58157 -0.15503,-5.44538 1.945,-7.15461 7.03119,-8.91071 5.12286,-1.76874 9.85662,-4.67346 14.7409,-7.12018 2.45654,-1.23065 6.28292,-2.81473 9.13711,-3.70322 -0.56325,7.8338 -0.45844,15.78497 -0.0117,23.72068 -0.24976,5.18202 -0.53448,4.44449 -1.75074,15.95386 -1.02246,8.84539 -1.28473,18.32885 -3.35693,27.39886 -3.35461,14.68286 -7.60199,29.18585 -12.06134,43.58234 -2.30621,7.44543 -5.87842,14.49872 -9.45337,21.77795 -5.82342,-3.13537 -11.07202,-6.31946 -16.5509,-9.74945 -30.58655,-19.28625 -57.35333,-42.41724 -79.82685,-70.43597 -4.86975,2.37957 -9.51556,4.64972 -14.43744,7.05481 12.9491,23.19 20.66769,47.70763 28.07599,72.61126 1.24805,4.19541 1.25645,5.72238 2.0752,9.23688 1.10913,12.05194 2.59363,24.0777 3.36157,36.14972 0.53003,8.3313 0.10181,16.72357 0.10181,25.4502 1.29913,-1.15247 2.53302,-2.19227 3.70624,-3.29657 8.24035,-7.75715 14.36309,-7.01252 20.8211,2.36077 1.15894,1.68207 2.97186,2.91358 4.48285,4.35309 -8.38989,8.75678 -16.47241,17.83789 -25.26355,26.17133 -7.52911,7.13708 -15.5957,13.78631 -23.92114,19.98431 -10.44086,7.77277 -21.34522,14.92871 -32.13672,22.22199 -4.91156,3.31952 -9.81403,6.77264 -15.10693,9.38122 -9.13147,4.50037 -18.58265,8.34876 -27.86615,12.54474 -8.33484,3.76727 -16.45826,8.07196 -24.98822,11.31537 -6.52991,2.48297 -13.59992,3.50848 -20.33124,5.51264 -4.23065,1.2597 -8.17133,3.56591 -12.43536,4.62365 -6.38575,1.58393 -12.95936,2.39356 -19.42029,3.69544 -8.3432,1.68115 -16.58716,4.00317 -24.99573,5.17437 -10.56818,1.47211 -21.25971,2.0589 -32.56183,2.706 -6.07214,-0.4112 -11.48224,-0.62451 -16.88821,-0.54706 -3.68311,0.0527 -7.36042,0.51196 -11.04032,0.78949 -15.30001,-1.67902 -30.65429,-2.9812 -45.88016,-5.17499 -9.50149,-1.36896 -18.90176,-3.74744 -28.17401,-6.30249 -7.24887,-1.99756 -14.20193,-5.04895 -21.34137,-7.47021 -5.20092,-1.7638 -10.62228,-2.93494 -15.70987,-4.96155 -6.88287,-2.74176 -13.50293,-6.13562 -20.30535,-9.08936 -6.11542,-2.65533 -12.55332,-4.65698 -18.43857,-7.7323 -8.49158,-4.43744 -16.55258,-9.6903 -24.90442,-14.40557 -14.47067,-8.16987 -28.03439,-17.52112 -40.97238,-28.03473 -14.81091,-12.03565 -28.92696,-24.63398 -41.32382,-39.94129 5.64659,-14.10925 13.37982,-15.44318 26.37341,-6.14307 0.81811,-14.95886 1.59268,-30.58398 2.56918,-46.19641 0.34915,-5.58148 1.18665,-11.13244 2.0271,-16.97094 1.06201,-2.58417 2.12259,-4.84021 2.69919,-7.21381 5.28448,-21.75281 12.96747,-42.58392 23.68875,-62.26245 1.54681,-2.83905 3.15454,-5.6449 4.74509,-8.48572 -5.25629,-2.72662 -9.93125,-5.15167 -14.76111,-7.6571 -0.57715,0.66809 -1.11591,1.27954 -1.64163,1.90204 -26.0983,30.90075 -56.33919,56.92279 -91.25597,77.42529 -1.38878,0.81549 -2.97606,1.29291 -4.47084,1.92785 -4.17291,-10.97888 -8.89996,-21.78607 -12.37041,-32.98272 -3.83946,-12.38721 -6.92956,-25.04749 -9.57682,-37.74909 -2.11649,-12.0455 -3.89127,-24.21983 -3.87678,-36.43613 V 569.3985 c 3.52594,1.80157 6.46933,3.32275 9.42798,4.81366 5.89472,2.97046 11.94161,5.68085 17.61173,9.03009 1.75099,1.0343 3.36149,3.71326 3.54233,5.77051 1.17306,13.3457 1.93365,26.72766 2.92956,41.59375 17.33777,-8.32294 30.84474,-20.23639 46.61356,-30.0625 -7.03232,-5.05988 -13.25991,-9.5326 -19.47885,-14.01734 -9.19678,-6.6322 -18.73046,-12.85254 -27.5008,-20.00793 -13.37208,-10.90973 -26.47363,-22.18634 -39.18831,-33.85388 -8.15525,-7.48359 -15.82498,-15.60151 -22.92955,-24.09015 -5.30413,-6.3375 -2.27211,-16.03269 4.80564,-20.38803 2.93739,-1.80759 5.08366,-4.89276 7.61284,-7.37336 6.06041,-5.94393 12.74914,-11.37551 18.06034,-17.92529 8.16282,-10.06631 15.83297,-20.60483 22.89206,-31.47555 9.30657,-14.3317 17.9256,-29.11588 26.63848,-43.82505 6.49403,-10.96331 12.44279,-22.25296 19.0538,-33.14264 5.57819,-9.18841 11.6833,-18.06228 17.71553,-26.96676 2.0937,-3.09061 2.6911,-5.18323 0.33014,-9.02664 -11.96625,-19.47992 -20.63156,-40.33936 -22.30162,-63.44083 -0.72565,-10.03755 0.19585,-20.20366 -0.69197,-30.21729 -0.83424,-9.40947 0.64842,-18.39427 2.69549,-27.36387 1.39193,-6.09902 3.5336,-12.0269 5.69904,-18.10991 0.43474,-0.0292 0.51042,0.0203 0.58612,0.0697 -0.12372,-0.1259 -0.24744,-0.25182 -0.37112,-0.37773 M 710.0775,776.94719 c 0,0 -4.38613,8.53133 -3.69723,8.64113 3.82904,3.29798 -1.42415,3.54893 -3.29911,8.91544 -6.11846,17.51228 -0.37699,3.48713 -6.74105,12.53915 5.76276,-2.92884 11.91325,-5.85761 18.25761,-9.0083 6.79613,-4.8307 5.1867,-2.82794 8.50683,-5.89081 1.3667,-1.26068 2.68396,-3.33496 2.77381,-5.10767 1.81958,-35.9096 -2.41248,-71.02362 -15.14698,-104.78997 -3.84161,-10.18628 -9.02514,-19.86646 -13.57946,-30.44812 -1.41211,-2.93537 -2.82416,-5.87079 -4.2536,-8.84235 -27.24457,11.43561 -54.94892,18.85394 -83.14991,24.5686 -10.38604,2.10468 -20.78906,4.12537 -31.90826,6.06458 -45.51233,6.02221 -91.0206,6.42822 -137.36337,-0.40686 -19.20173,-3.90607 -38.60495,-7.03522 -57.54593,-11.9469 -17.33908,-4.4964 -34.20871,-10.8302 -51.20862,-16.58081 -2.79385,-0.94507 -4.19193,-0.71039 -5.51425,1.96197 -3.09674,6.25842 -6.72907,12.26398 -9.61307,18.61328 -16.87787,37.15753 -25.36087,75.90784 -21.50324,116.88489 0.23941,2.54273 0.52738,6.20709 2.16245,7.29956 7.54065,5.03815 15.5668,9.34955 23.72778,14.26795 0.25247,-0.0563 0.50495,-0.11255 0.75742,-0.16877 -0.17914,-0.23352 -0.35825,-0.46698 -0.62494,-1.43029 -0.78964,-1.82703 -1.50971,-3.68793 -2.37967,-5.47583 -8.45041,-17.36658 -13.17926,-35.58008 -11.58841,-54.98652 0.67453,-8.22857 2.05948,-16.45245 3.84958,-24.5169 1.16773,-5.26068 6.42282,-8.23157 11.04098,-7.04004 4.89396,1.26276 5.91614,5.05115 5.94648,9.64416 0.0384,5.8028 0.21533,11.64441 0.92364,17.39655 4.12473,33.49786 18.62827,62.13965 41.44184,86.67981 20.23019,21.76129 45.21325,35.17676 74.24917,41.14978 9.20151,1.89282 18.42224,3.69232 27.86429,5.5805 0.53687,-1.86889 1.03516,-2.94427 1.1272,-4.05334 0.23343,-2.81268 0.28473,-5.6405 0.4657,-9.39624 -1.22587,-12.54309 -1.42057,-25.29285 -3.88382,-37.58801 -5.84034,-29.15192 -19.23728,-54.72858 -39.67524,-76.44281 -4.38403,-4.65784 -6.15039,-9.74304 -4.30633,-15.92572 1.47613,-4.94916 5.68106,-7.01941 10.62503,-9.11792 6.22284,-2.10517 11.69513,-0.2768 15.74023,4.33087 8.40998,9.5794 17.75495,18.73205 24.2218,29.55072 20.90354,34.97021 31.60935,72.8623 28.33875,114.89154 v 4.90545 h 10.44824 c -0.26312,-1.83221 -0.47052,-3.27618 -0.5484,-5.64306 0.99207,-14.88776 0.78205,-29.97516 3.21479,-44.62366 5.92138,-35.65484 20.57342,-67.45532 45.23071,-94.34222 5.90442,-6.43836 12.09387,-11.43402 21.91363,-8.69666 11.06519,5.57678 12.96839,14.95191 4.91248,24.23212 -1.09027,1.25598 -2.2359,2.46423 -3.31934,3.72595 -27.79431,32.36756 -40.45843,70.06745 -39.79828,113.34815 0.45136,3.57049 0.90271,7.14099 1.44947,11.4663 9.25042,-1.75939 17.99847,-3.47094 26.76507,-5.08172 28.18988,-5.17993 52.35022,-17.92139 72.5127,-38.32086 12.75341,-12.90332 22.49408,-27.86683 31.19104,-43.72095 0.69714,-2.64557 4.56187,-10.31676 5.37069,-11.80813 0.9386,-4.08331 3.55454,-15.44469 5.84015,-23.00808 1.09743,-5.27055 2.25418,-22.55016 2.39065,-23.78349 0.31067,-0.8396 -0.0142,-11.34599 0.89897,-12.48277 2.23212,-2.49396 6.50294,-3.32474 10.27259,-3.47842 2.05967,-0.084 6.13078,8.14906 6.86448,12.80458 1.18749,2.32812 2.36138,34.57421 2.36138,34.57421 M 168.545,633.64075 c -0.0487,0.20465 -0.0974,0.40936 -0.14615,0.61401 0.11822,-0.12933 0.23645,-0.25867 0.14615,-0.61401 m 62.01858,-376.00489 c -0.0496,0.20804 -0.0992,0.41605 -0.14885,0.62409 0.12084,-0.13181 0.24166,-0.26364 0.14885,-0.62409 m -1.05861,-44.04589 c 0,0 -0.0522,-0.1108 0,0 m 1.09798,-7.07775 c 0,0 -0.11035,0.078 0,0 m 0.98499,-4.9994 c 0,0 -0.10163,0.066 0,0 z"
   id="path2"
   sodipodi:nodetypes="cssssssscsscccssssssscccscccssssccccsccccscsccscssccsssssccccscccccsccccssscccccccssscccccssscsssssssscsssscsssssssssssssssccssscccssccccscsccscsssssssssscscssssssssccsccscccscssccsssccssssssssssssssscccccsccscsccsccsssssscccssssscsscscssscssccccsscsccccscccccscccccccccccccc" />
<path
   fill="#f8fafa"
   opacity="1"
   stroke="none"
   d="m 656.76202,251.01065 c 10.8407,9.48465 21.7168,18.92932 32.49738,28.48178 2.7276,2.4169 5.15057,5.17758 7.45032,8.22925 -1.28113,-0.0763 -2.34076,-0.53442 -3.31073,-1.13687 -16.08161,-9.98831 -31.75452,-20.7193 -48.32727,-29.8103 -19.89679,-10.91433 -41.35749,-18.39269 -63.51685,-23.32638 -17.39172,-3.8722 -35.02905,-6.34059 -52.88446,-2.58459 -15.10297,3.177 -30.20862,6.3428 -45.33475,9.4068 -1.65445,0.33513 -3.45172,-0.035 -5.18277,-0.078 28.45731,-11.63554 50.10224,-31.09544 65.88025,-57.67401 5.07849,-0.30685 10.12451,-0.27086 15.4234,0.0752 -0.11944,0.20959 -0.49188,0.10917 -1.54333,0.12634 -0.98334,1.13708 -1.28766,2.15657 -1.59192,3.17607 -2.37201,8.1243 -4.74402,16.24858 -7.20441,24.67575 29.24042,5.73305 56.92408,14.70749 83.03809,28.10139 6.66943,-7.45375 13.27478,-15.31358 20.38232,-22.68956 21.19001,-21.99034 47.41571,-35.15843 76.69373,-42.55494 12.63531,-3.19206 21.32745,1.46432 26.53137,14.25369 6.89667,16.94957 8.60352,34.80444 7.71484,52.96217 -0.10589,2.16272 -0.33777,4.31931 -0.93878,6.98676 -0.48382,2.12233 -0.5401,3.73665 -0.59637,5.35095 -0.0325,0.75113 -0.065,1.50224 -0.55799,2.60961 -1.38256,0.3628 -2.30462,0.36938 -3.26837,-0.0889 0.89246,-20.57203 -1.49743,-40.20442 -8.3399,-59.21884 -5.37592,-14.93896 -10.79596,-17.10626 -25.01654,-9.89232 -0.14368,0.0729 -0.25324,0.21328 -0.70948,0.3842 -4.94165,2.39078 -9.55249,4.71952 -14.52484,7.08529 -3.08081,1.40673 -5.80017,2.77645 -8.85846,4.23083 -21.38452,11.82547 -40.26837,26.11754 -55.64721,46.20046 4.42846,2.53356 8.08557,4.62586 11.74273,6.71815 z"
   id="path3" />
<path
   fill="#fbfcfc"
   opacity="1"
   stroke="none"
   d="m 189.1781,704.43768 c 1.37332,-0.96325 2.9606,-1.44067 4.34938,-2.25616 34.91678,-20.5025 65.15767,-46.52454 91.25597,-77.42529 0.52572,-0.6225 1.06448,-1.23395 1.64163,-1.90204 4.82986,2.50543 9.50482,4.93048 14.76111,7.6571 -1.59055,2.84082 -3.19828,5.64667 -4.74509,8.48572 -10.72128,19.67853 -18.40427,40.50964 -23.68875,62.26245 -0.5766,2.3736 -1.63718,4.62964 -3.05508,7.23053 -1.3198,0.66174 -2.14594,0.9209 -2.78302,1.4209 -16.16356,12.68487 -32.31905,25.38019 -48.41845,38.14624 -0.7722,0.61236 -1.01819,1.88824 -1.50923,2.85516 -2.97758,-4.56622 -6.16273,-9.01233 -8.88869,-13.72418 -5.3619,-9.26794 -10.4454,-18.69672 -15.70416,-28.02502 -0.87573,-1.55347 -2.05511,-2.93573 -3.21562,-4.72541 z"
   id="path4" />





<path
   fill="#fcfdfd"
   opacity="1"
   stroke="none"
   d="m 171.10936,501.93597 c -2.63333,-3.49548 1.49344,-4.12576 2.70854,-5.53094 9.52979,-11.01972 19.68955,-21.51004 28.931,-32.75849 6.50415,-7.91668 11.87441,-16.76498 18.34213,-25.41763 1.76377,-1.34787 3.02925,-2.39438 4.09432,-3.61566 9.17775,-10.52393 17.74325,-21.65643 27.60029,-31.49661 16.82099,-16.7923 33.95948,-33.33676 51.86164,-48.95722 20.20532,-17.63006 42.77783,-31.74588 69.16259,-38.44668 29.47336,-7.48529 58.01142,-5.5679 84.94645,9.73904 2.26892,1.28937 4.599,2.4711 7.18515,3.88877 2.71734,2.92022 5.45355,5.44253 7.53537,8.42208 17.85202,25.54975 24.79934,53.87198 20.81424,84.75925 -1.13391,8.78873 -3.08164,17.47244 -4.4762,25.20639 13.78476,0 27.69104,0 41.56512,0 -5.7431,-17.80408 -7.85907,-36.22006 -5.36749,-54.97259 2.83484,-21.33628 10.21753,-40.89514 24.49396,-57.63294 1.10443,-0.99258 1.84357,-2.01028 2.57013,-3.04355 -0.0126,-0.0155 0.0358,-0.004 0.3902,0.12351 1.25195,-0.28479 2.23968,-0.56922 3.03393,-1.12845 28.66962,-20.18631 60.01874,-23.52765 93.2143,-14.6644 21.74511,5.80591 40.7586,17.02976 58.01794,31.09531 14.41425,11.74701 28.13843,24.34073 42.31201,36.84579 1.40967,1.41556 2.6756,2.54483 4.06085,3.94119 0.70307,0.77146 1.28681,1.27582 1.99463,2.02402 0.60584,0.44736 1.08759,0.65088 1.64392,0.86139 0.0745,0.007 0.0886,0.15588 0.14649,0.483 13.05768,14.7634 26.03943,29.21619 39.09161,43.60501 1.05396,1.16196 2.59162,1.88514 3.90454,2.8122 14.46137,21.57141 29.6767,42.5321 48.82758,60.89258 -3.29846,3.10891 -6.39099,5.93393 -9.90283,8.06942 -10.91498,6.63736 -21.81366,13.33695 -33.04016,19.41904 -19.88923,10.77527 -39.75055,21.66309 -60.12104,31.47058 -18.09143,8.71015 -36.80145,16.1532 -55.33899,23.91553 -30.81872,12.90509 -62.12005,24.62579 -95.0592,30.70441 -22.27228,4.11023 -44.80981,7.39209 -67.37634,9.1463 -28.88047,2.24499 -57.74124,-0.62323 -86.36057,-4.88684 -24.50284,-3.65039 -48.41775,-9.91449 -71.65094,-18.50873 -36.8016,-13.61316 -72.84451,-28.9978 -107.66098,-47.16998 -12.37662,-6.45984 -24.86549,-12.70447 -37.24727,-19.15467 -7.36921,-3.83892 -14.62973,-7.88653 -22.22441,-12.00909 -1.10936,-0.41565 -1.93344,-0.66248 -2.99675,-0.94275 -0.23924,-0.0335 -0.72084,-0.072 -0.72844,-0.0478 -0.008,0.0241 0.0356,-0.002 -0.1168,-0.2854 -1.05788,-0.76727 -1.96335,-1.25134 -2.88257,-1.71656 -0.0137,0.0189 0.0305,0.005 -0.13405,-0.25152 -0.7198,-0.48779 -1.27509,-0.71918 -1.90289,-1.27667 -6.76587,-4.84354 -13.41577,-9.42865 -20.20925,-13.79007 -0.8195,-0.5261 -2.4156,0.15753 -3.65176,0.28048 m 188.88209,55.72474 c 4.5918,-1.94245 9.35486,-3.56153 13.74454,-5.88575 15.64505,-8.28363 27.2489,-21.16259 38.39331,-34.49609 8.43653,-10.09369 16.55173,-20.46646 25.2407,-30.33576 9.56375,-10.86288 19.20281,-21.77993 32.8966,-27.84988 0.73963,-0.32788 1.5415,-1.26907 1.69715,-2.04809 2.49081,-12.46708 4.02365,-24.96332 1.77642,-37.69053 -9.37469,-53.09341 -70.07901,-84.35067 -121.2738,-46.8937 -15.08395,11.03625 -28.32434,24.72418 -41.74457,37.87548 -29.76358,29.16709 -60.27304,57.40055 -94.78235,80.98652 -4.71832,3.22482 -9.43907,6.44607 -14.54706,9.9342 23.22669,19.75076 46.71,37.34494 74.08127,49.16122 27.12452,11.70984 54.87589,15.71003 84.51779,7.24238 m 239.95423,-51.10639 c 5.29339,6.20172 10.49713,12.48279 15.89831,18.58917 12.25873,13.85907 25.80042,25.95319 43.88001,31.86603 26.36334,8.62201 52.21326,6.0835 77.68536,-3.53589 28.26758,-10.67517 51.80707,-29.05792 75.64362,-46.91876 2.06335,-1.54614 3.98883,-3.27621 6.255,-5.1495 -4.79742,-3.2078 -9.25305,-6.08469 -13.60363,-9.11264 C 774.73792,470.7408 747.375,444.967 719.94812,419.24712 703.32843,403.66185 687.16351,387.4424 669.38336,373.27913 c -26.06872,-20.76577 -59.72778,-22.88058 -85.92151,-6.85067 -33.18554,20.30874 -42.79205,53.85644 -34.90344,89.61865 0.25256,1.14493 1.56067,2.24313 2.63641,2.98794 4.48316,3.10382 9.77314,5.37815 13.48139,9.20331 11.91492,12.29038 23.25897,25.13419 35.26947,38.31601 M 553.1709,553.6662 c -7.0683,6.34131 -16.28198,7.96313 -23.45709,4.12903 -8.4654,-4.52362 -11.36414,-12.1402 -9.31904,-24.56427 0.46033,-0.0771 0.93769,-0.15601 1.41456,-0.23725 15.10022,-2.57251 28.44976,-15.57336 30.21508,-29.42566 1.9643,-15.41342 -6.03643,-29.6773 -21.47802,-35.6416 -15.24835,-5.88974 -30.97345,-5.21496 -45.37592,2.60929 -19.70911,10.70724 -22.81158,34.35015 -7.50796,50.8334 6.30935,6.79559 13.85379,11.19147 23.66165,12.35309 -0.49665,4.60779 -0.57077,8.96637 -1.50736,13.13104 -1.43133,6.36469 -5.69351,10.3786 -12.0144,12.07019 -13.26645,3.55042 -25.23395,-5.52698 -26.5372,-20.09155 -0.7439,-8.3136 -8.70819,-12.44287 -15.97162,-8.28082 -5.04752,2.89227 -7.16727,8.84527 -5.08737,16.32934 4.35473,15.66974 14.2218,26.79395 29.64242,31.87146 15.44483,5.08569 29.4213,1.63037 40.62851,-9.99585 3.90232,2.81281 7.38022,6.05664 11.45407,8.12891 17.95838,9.13513 40.72553,1.77313 52.46546,-16.76679 3.85498,-6.08776 7.12738,-12.47979 6.64911,-20.01635 -0.41059,-6.46973 -5.19666,-11.14435 -11.16138,-11.11579 -6.27411,0.03 -9.94794,4.43244 -11.07007,11.04254 -0.7691,4.5304 -3.35644,8.75202 -5.64343,13.63764 z"
   id="path10" />
<path
   fill="#a19fa4"
   opacity="1"
   stroke="none"
   d="m 465.65698,329.1546 c -2.30166,-1.23172 -4.63174,-2.41345 -6.90066,-3.70282 -26.93503,-15.30694 -55.47309,-17.22433 -84.94645,-9.73904 -26.38476,6.7008 -48.95727,20.81662 -69.16259,38.44668 -17.90216,15.62046 -35.04065,32.16492 -51.86164,48.95722 -9.85704,9.84018 -18.42254,20.97268 -27.60029,31.49661 -1.06507,1.22128 -2.33055,2.26779 -3.85219,3.38187 4.16133,-8.30622 8.72211,-16.57196 13.17355,-24.89621 20.83603,-38.96353 43.99982,-76.35746 73.83808,-109.22324 4.22284,-4.65134 8.89779,-8.89215 13.90631,-13.57739 2.12274,-1.01911 3.8352,-1.59238 5.26111,-2.57953 9.28933,-6.43115 18.22012,-13.43286 27.82071,-19.35168 26.52978,-16.35582 55.37024,-27.44642 85.31344,-35.67853 10.20581,-2.80583 20.6897,-4.60028 31.04651,-6.85686 -2.80618,3.37956 -5.52746,6.8345 -8.44232,10.1176 -2.94321,3.31505 -6.07828,6.45976 -9.00186,10.84769 7.71774,-2.21341 15.43548,-4.42682 23.52871,-6.62243 2.10654,0.0608 3.90381,0.43093 5.55826,0.0958 15.12613,-3.064 30.23178,-6.2298 45.33475,-9.4068 17.85541,-3.756 35.49274,-1.28761 52.88446,2.58459 22.15936,4.93369 43.62006,12.41205 63.51685,23.32638 16.57275,9.091 32.24566,19.82199 48.32727,29.8103 0.96997,0.60245 2.0296,1.06058 3.40844,1.46353 0.3609,-0.12232 0.2851,-0.0629 0.24732,0.20843 0.32135,0.41584 0.68048,0.56034 1.03961,0.70487 0,0 -0.0749,0.0199 0.0366,0.31317 0.55914,0.43869 1.00665,0.58411 1.45422,0.72955 16.65973,15.94498 30.85224,33.96869 44.20343,52.68247 4.5412,6.36514 9.46016,12.70004 13.85,19.91434 11.68487,18.7975 37.21516,57.17007 42.82069,74.49651 -14.02979,-12.21879 -78.3121,-77.84551 -92.72635,-89.59252 -17.25934,-14.06555 -36.27283,-25.2894 -58.01794,-31.09531 -33.19556,-8.86325 -64.54468,-5.52191 -93.2143,14.6644 -0.79425,0.55923 -1.78198,0.84366 -3.12109,0.78299 8.83484,-11.94653 19.77069,-21.56451 34.0921,-25.66236 9.80359,-2.80514 20.17969,-3.74731 30.36023,-5.05035 7.22717,-0.92496 13.44269,-5.73218 14.1441,-11.91849 0.80964,-7.14019 -3.64556,-13.70385 -10.9812,-15.7633 -2.20465,-0.61893 -4.60003,-0.66089 -6.91699,-0.76236 -32.16601,-1.40882 -58.15594,11.29916 -79.53955,34.69614 -10.35504,11.32998 -17.76727,24.4479 -23.75491,38.44174 -3.53827,-6.63642 -6.61841,-13.28116 -10.4874,-19.42948 -3.97635,-6.31897 -8.31723,-12.50488 -13.2016,-18.13962 -22.49322,-25.94885 -50.45535,-38.99172 -85.29687,-35.23342 -8.16282,0.88052 -14.16101,7.36471 -13.741,14.97741 0.40356,7.31433 6.76602,12.82932 14.91669,13.09629 4.82275,0.15792 9.66296,0.31921 14.45257,0.85849 19.89292,2.23983 35.42355,12.32266 48.23117,27.18667 z"
   id="path11"
   sodipodi:nodetypes="ccsssscssccsscsccssssscccccsccssscsssssscssssssc" />
<path
   fill="#a09da4"
   opacity="1"
   stroke="none"
   d="m 697.32495,652.07709 c 4.56879,9.91199 9.56482,19.98279 13.40643,30.16907 12.7345,33.76635 16.96656,68.88037 15.14698,104.78997 -0.0899,1.77271 -1.40711,3.84699 -2.77381,5.10767 -2.16613,1.99829 -5.14515,4.45571 -8.03749,5.59383 -0.41302,-6.62 0.12782,-13.74849 -0.16996,-19.82167 -0.32612,-6.64808 -1.16089,-13.27131 -1.78675,-20.37433 -0.70068,-11.99341 -0.82831,-23.5929 -2.35736,-35.00464 -0.59729,-4.45825 -4.34454,-8.49451 -6.68976,-13.09333 -3.35693,-10.9718 -10.70611,-18.96838 -17.56885,-27.25708 -0.60199,-0.72711 -2.21594,-1.22131 -3.07385,-0.94268 -0.70215,0.22796 -1.26324,1.73346 -1.39044,2.73565 -0.43793,3.45081 -0.79791,6.92365 -0.93872,10.3982 -0.95068,23.46429 -7.50079,45.57043 -17.81305,66.36157 -16.22186,32.70556 -39.96777,58.90857 -70.96265,78.51117 -14.0365,8.87732 -29.34801,15.61919 -45.31609,19.9154 -0.81842,-42.44891 12.17382,-80.47692 39.96813,-112.84448 1.08344,-1.26172 2.22907,-2.46997 3.31934,-3.72595 8.05591,-9.28021 6.21521,-18.03034 -5.10919,-24.35291 -0.57917,-8.33923 -0.96161,-16.55761 -1.25916,-24.44433 -0.0167,-0.68323 -0.40955,-1.05102 -0.0186,-1.52038 2.05414,-0.3736 4.0748,-0.5434 5.64927,-1.00623 18.09851,-5.32099 36.35565,-10.17701 54.22094,-16.19477 16.7594,-5.64538 33.12073,-12.48144 49.59131,-18.96118 2.10097,-0.82652 3.01622,-4.98566 3.96333,-4.03857 z"
   id="path12"
   sodipodi:nodetypes="cssscscscssscsscssccccssc" />
<path
   fill="#c7ccd9"
   opacity="1"
   stroke="none"
   d="m 170.60639,498.7009 c 7.30937,3.95379 47.98068,29.43558 55.34989,33.2745 12.38178,6.4502 24.87065,12.69483 37.24727,19.15467 34.81647,18.17218 70.85938,33.55682 107.66098,47.16998 23.23319,8.59424 47.1481,14.85834 71.65094,18.50873 28.61933,4.26361 57.4801,7.13183 86.36057,4.88684 22.56653,-1.75421 45.10406,-5.03607 67.37634,-9.1463 32.93915,-6.07862 64.24048,-17.79932 95.0592,-30.70441 18.53754,-7.76233 37.24756,-15.20538 55.33899,-23.91553 20.37049,-9.80749 40.23181,-20.69531 60.12104,-31.47058 11.2265,-6.08209 22.12518,-12.78168 33.04016,-19.41904 3.51184,-2.13549 6.60437,-4.96051 10.04779,-7.76907 2.85394,0.74246 1.76282,1.83109 0.31982,3.17423 -6.69659,6.23324 -13.14795,12.74234 -20.0227,18.7698 -38.35205,33.62525 -79.73456,62.65216 -126.38196,83.85755 -44.06024,20.02923 -90.00281,32.98455 -138.01062,39.11895 -71.10086,11.86737 -142.36356,1.30628 -207.74787,-22.76239 -57.981,-21.34343 -155.18557,-78.14684 -188.22879,-120.06412 0.14264,-0.72657 -0.11617,-1.3045 0.81895,-2.66381 z"
   id="path13"
   sodipodi:nodetypes="csssssssssscssscscc" />
<path
   fill="#a09ea4"
   opacity="1"
   stroke="none"
   d="m 435.99792,717.9566 c -4.12707,2.13227 -8.332,4.20252 -9.80813,9.15168 -1.84406,6.18268 -0.0777,11.26788 4.30633,15.92572 20.43796,21.71423 33.8349,47.29089 39.67524,76.44281 2.46325,12.29516 3.19933,25.47581 3.99337,38.52244 -1.09439,0.45636 -2.3327,0.0961 -2.95596,-0.0858 -26.82379,-7.8269 -50.35934,-21.68255 -70.89276,-40.33252 -22.0853,-20.05957 -38.64267,-44.14099 -49.58011,-72.07306 -8.86072,-22.62854 -12.98666,-45.86859 -10.67767,-70.12194 0.39419,-4.14057 1.35727,-8.22699 2.16678,-12.98005 7.72226,3.12153 14.34689,6.20575 21.23391,8.50348 17.46683,5.8277 34.99738,11.48059 52.61695,16.82581 6.45974,1.95965 13.58578,2.5437 20.28601,4.22888 0.11303,0.50507 -0.18274,1.01898 -0.21021,1.64618 -0.10153,8.39941 -0.12765,16.37286 -0.15375,24.34637 z"
   id="path14"
   sodipodi:nodetypes="csssccsssccsccc" />
<path
   fill="#686d7d"
   opacity="1"
   stroke="none"
   d="m 435.95306,691.9729 c -6.63516,-1.38153 -13.41745,-2.27808 -19.87719,-4.23773 -17.61957,-5.34522 -35.15012,-10.99811 -52.61695,-16.82581 -6.88702,-2.29773 -13.51165,-5.38195 -21.23391,-8.50348 -0.80951,4.75306 -1.77259,8.83948 -2.16678,12.98005 -2.30899,24.25335 1.81695,47.4934 10.67767,70.12194 10.93744,27.93207 27.49481,52.01349 49.58011,72.07306 20.53342,18.64997 44.06897,32.50562 70.89276,40.33252 0.62326,0.18189 1.87262,0.056 2.93863,0.0667 0.27923,2.78515 -0.32449,5.66822 -0.55792,8.4809 -0.092,1.10907 -0.59033,2.18445 -1.1272,4.05334 -9.44205,-1.88818 -18.66278,-3.68768 -27.86429,-5.5805 -29.03592,-5.97302 -54.01898,-19.38849 -74.24917,-41.14978 -22.81357,-24.54016 -37.31711,-53.18195 -41.44184,-86.67981 -0.70831,-5.75214 -0.88528,-11.59375 -0.92364,-17.39655 -0.0303,-4.59301 -1.05252,-8.3814 -5.94648,-9.64416 -4.61816,-1.19153 -9.87325,1.77936 -11.04098,7.04004 -1.7901,8.06445 -3.17505,16.28833 -3.84958,24.5169 -1.59085,19.40644 3.138,37.61994 11.58841,54.98652 0.86996,1.7879 1.59003,3.6488 2.29019,5.97033 -0.0895,0.49457 -0.3519,0.75818 -0.3519,0.75818 -7.85208,-4.57202 -15.87823,-8.88342 -23.41888,-13.92157 -1.63507,-1.09247 -1.92304,-4.75683 -2.16245,-7.29956 -3.85763,-40.97705 4.62537,-79.72736 21.50324,-116.88489 2.884,-6.3493 6.51633,-12.35486 9.61307,-18.61328 1.32232,-2.67236 2.7204,-2.90704 5.51425,-1.96197 16.99991,5.75061 33.86954,12.08441 51.20862,16.58081 18.94098,4.91168 38.8442,7.60333 58.39026,12.01715 -1.39313,6.43286 -3.31809,13.04553 -5.05555,18.97064 z"
   id="path15"
   sodipodi:nodetypes="csscsssscscssssssssccscssssccc" />
<path
   fill="#fcfdfd"
   opacity="1"
   stroke="none"
   d="m 436.40637,717.97351 c -0.38235,-7.99042 -0.35623,-15.96387 0.10572,-24.35571 2.50424,0.1806 4.54626,0.90008 6.64523,1.35913 17.16043,3.75354 34.41635,6.32129 52.03567,7.40289 19.52619,1.19861 38.72785,-0.32409 57.9336,-3.02331 10.2998,-1.44757 20.59203,-3.82794 30.84588,-5.6023 0.32001,7.59345 0.56372,15.52411 0.956,23.56598 -9.37366,-1.69421 -15.56311,3.30145 -21.46753,9.73981 -24.65729,26.8869 -39.30933,58.68738 -45.23071,94.34222 -2.43274,14.6485 -2.22272,29.7359 -3.67005,45.04651 -3.38245,0.0942 -6.3096,-0.2345 -9.23672,-0.56317 3.06274,-41.15131 -7.64307,-79.0434 -28.54661,-114.01361 -6.46685,-10.81867 -15.81182,-19.97132 -24.2218,-29.55072 -4.0451,-4.60767 -9.51739,-6.43604 -16.14868,-4.34772 z"
   id="path16"
   sodipodi:nodetypes="cccssccssccssc" />
<path
   fill="#666c7c"
   opacity="1"
   stroke="none"
   d="m 547.01416,859.14429 c 16.04725,-4.7121 31.26501,-11.01648 45.30151,-19.8938 30.99488,-19.6026 54.74079,-45.80561 70.96265,-78.51117 10.31226,-20.79114 16.86237,-42.89728 17.81305,-66.36157 0.14081,-3.47455 0.50079,-6.94739 0.93872,-10.3982 0.1272,-1.00219 0.68829,-2.50769 1.39044,-2.73565 0.85791,-0.27863 2.47186,0.21557 3.07385,0.94268 6.86274,8.2887 14.83692,16.41028 17.76026,27.43085 -7.74494,0.47785 -11.22748,2.19159 -11.14551,8.04413 0.24072,17.18219 -2.12927,33.93445 -7.38123,50.62677 -0.45684,1.39325 -0.74322,2.48602 -1.18273,3.85449 -0.86493,1.8086 -1.57673,3.34162 -2.44611,5.18323 -0.55963,1.38672 -0.96167,2.46472 -1.60364,3.73474 -0.64398,1.11182 -1.04797,2.03174 -1.45196,2.95166 -8.27771,16.07275 -18.39338,30.81751 -31.14679,43.72083 -20.16248,20.39947 -44.32282,33.14093 -72.5127,38.32086 -8.7666,1.61078 -17.51465,3.32233 -26.76507,5.08172 -0.54676,-4.32531 -1.23248,-8.00518 -1.60474,-11.99157 z"
   id="path17"
   sodipodi:nodetypes="csssssccscccccsscc" />
<path
   fill="#fbfcfc"
   opacity="1"
   stroke="none"
   d="m 814.72864,693.8385 c -5.33856,8.97583 -10.78845,17.78491 -16.52368,26.40418 -3.10157,4.66107 -6.69025,8.99798 -10.17121,13.83105 -11.97815,-8.4765 -23.84424,-17.3028 -36.01922,-26.19153 -1.39234,-1.6391 -3.04261,-3.07513 -3.47419,-4.8136 -6.25921,-25.21698 -15.12689,-49.42126 -28.07599,-72.61126 4.92188,-2.40509 9.56769,-4.67524 14.43744,-7.05481 22.47352,28.01873 49.2403,51.14972 79.82685,70.43597 z"
   id="path18" />
<path
   fill="#f7f9f9"
   opacity="1"
   stroke="none"
   d="m 471.94812,225.6105 c -10.61206,2.47776 -21.09595,4.27221 -31.30176,7.07804 -29.9432,8.23211 -58.78366,19.32271 -85.31344,35.67853 -9.60059,5.91882 -18.53138,12.92053 -27.82071,19.35168 -1.42591,0.98715 -3.13837,1.56042 -5.0943,2.28796 10.71033,-10.43393 21.74695,-20.88452 32.92056,-31.18664 2.54373,-2.34531 5.56131,-4.17674 8.94443,-6.52379 4.14624,-2.8667 7.70889,-5.45429 11.75433,-8.39255 -4.49573,-4.8636 -8.10324,-9.44771 -12.39215,-13.26649 -9.37912,-8.35091 -19.10422,-16.31327 -28.98267,-24.61554 -4.05816,-2.50081 -7.82165,-4.82041 -11.81195,-7.39203 -7.04663,-3.4939 -13.86645,-6.73581 -20.95404,-10.203 -2.08902,-0.64458 -3.91027,-1.06389 -5.88116,-1.82322 -14.25998,-8.26547 -21.92627,-5.3475 -26.11228,9.87854 -4.195,15.25856 -6.92495,30.79705 -6.88815,46.67191 0.0215,9.29427 0.63376,18.58716 0.98026,27.88068 -5.21268,-14.88688 -7.15079,-30.31432 -5.51725,-45.87557 1.2428,-11.83897 3.31885,-23.75331 6.6171,-35.1741 4.53024,-15.68666 13.94229,-20.31517 29.87195,-16.34578 30.41141,7.578 56.01062,23.26347 77.09323,46.33992 5.25134,5.74797 10.04858,11.91081 15.16321,18.0126 30.01114,-15.23271 61.93323,-24.71132 96.65332,-27.08535 -3.89109,4.82768 -7.78217,9.65536 -11.92853,14.7042 z"
   id="path19" />
<path
   fill="#c8ccda"
   opacity="1"
   stroke="none"
   d="m 583.9187,693.79822 c -10.27631,2.06763 -20.49231,4.11072 -30.79211,5.55829 -19.20575,2.69922 -38.40741,4.22192 -57.9336,3.02331 -17.61932,-1.0816 -34.87524,-3.64935 -52.03567,-7.40289 -2.09897,-0.45905 -4.14099,-1.17853 -6.5698,-1.78497 -0.40838,-0.20893 -0.45636,-0.41034 -0.56939,-0.91541 1.67239,-6.22876 3.1911,-12.77893 5.00403,-19.05817 45.57864,6.17371 91.46191,5.8302 137.39166,0.21534 2.13354,6.38452 3.69348,12.92425 5.40967,18.90148 0.0392,0.3899 0.0785,0.77979 0.0952,1.46302 z"
   id="path20"
   sodipodi:nodetypes="cssscccccc" />
<path
   fill="#656c7d"
   opacity="1"
   stroke="none"
   d="m 263.96667,271.41962 c -0.31808,-9.67856 -0.93029,-18.97145 -0.95184,-28.26572 -0.0368,-15.87486 2.69315,-31.41335 6.88815,-46.67191 4.18601,-15.22604 12.16404,-20.985 26.05183,-12.6987 0,0 4.87359,-3.24934 79.93599,60.27844 0,0 -10.36049,9.04873 -11.47767,7.79257 -51.93235,-58.39295 -76.4095,-56.55361 -78.2754,-52.92954 -6.93229,9.61493 -6.33832,20.73338 -5.5582,31.72273 1.04275,14.6899 4.00729,28.92047 9.39911,42.63196 0.53845,1.36932 1.18606,2.69574 1.729,3.92035 -5.53714,7.26159 -10.95087,14.3613 -16.97058,22.25577 -4.27231,-9.45063 -9.24509,-17.83326 -10.77039,-28.03595 z"
   id="path21"
   sodipodi:nodetypes="csscsscssccc" />

<path
   fill="#6b6f7d"
   opacity="1"
   stroke="none"
   d="m 583.76747,692.45461 c -2.14631,-5.89777 -3.64198,-12.69887 -5.41359,-19.02358 10.33985,-2.40637 21.00849,-3.80206 31.39453,-5.90674 28.20099,-5.71466 55.90534,-13.13299 83.14991,-24.5686 1.42944,2.97156 3.04461,5.86011 4.44945,9.13031 -1.25439,1.57984 -2.48199,3.43793 -3.98614,4.02966 -16.47058,6.47974 -32.83191,13.3158 -49.59131,18.96118 -17.86529,6.01776 -36.12243,10.87378 -54.22094,16.19477 -1.57447,0.46283 -3.72772,0.8094 -5.78191,1.183 z"
   id="path23"
   sodipodi:nodetypes="ccsccsssc" />
<path
   fill="#14252a"
   opacity="1"
   stroke="none"
   d="m 685.8985,767.98785 c 5.08136,-16.39184 7.45135,-33.1441 7.21063,-50.32629 -0.082,-5.85254 2.77558,-7.69128 10.55322,-7.79877 2.7461,4.17969 6.49335,8.21595 7.09064,12.6742 1.52905,11.41174 1.65668,23.01123 2.07611,35.28076 -3.20666,17.78442 -7.31348,34.42328 -16.87036,49.19458 -1.36749,1.44543 -2.73499,2.89087 -5.29449,5.59625 -0.0875,-2.45215 -0.50422,-4.10614 -0.12763,-5.55383 0.94098,-3.61701 2.40393,-7.10193 3.26709,-10.73261 0.18073,-0.76007 -1.13775,-2.51568 -2.07037,-2.79529 -5.13336,-1.53906 -4.59095,-4.98217 -2.30231,-8.01977 3.55072,-4.71265 2.08691,-8.0993 -2.08655,-11.70215 C 687,773.5 687,773 687.21741,772.88965 c 0.48846,-0.31006 0.67688,-0.56983 0.76147,-1.18787 -0.70758,-1.43677 -1.39398,-2.57531 -2.08038,-3.71393 z"
   id="path24"
   style="display:none" />



<path
   fill="#666d7a"
   opacity="1"
   stroke="none"
   d="m 696.34332,807.02759 c 9.1723,-14.78656 13.50629,-32.8395 16.72565,-50.15493 0.89441,6.35791 1.50201,14.39522 1.82813,21.0433 0.39211,7.99694 1.57603,17.17788 0.17468,19.92926 -5.76275,2.92877 -12.58115,6.26885 -18.72849,9.18237 z"
   id="path28"
   sodipodi:nodetypes="ccsccc" />







<path
   fill="#b7c0c9"
   opacity="1"
   stroke="none"
   d="m 504.94333,866.25823 c 3.03104,-0.11029 6.87522,0.11895 10.19285,0.48626 0.59796,1.48254 0.16454,3.09224 0.42766,4.92445 H 505.1156 c 0,-1.73889 -0.27621,-3.38849 -0.17227,-5.41071 z"
   id="path36"
   sodipodi:nodetypes="ccccc" />
<path
   fill="#dfe4e8"
   opacity="1"
   stroke="none"
   d="m 758.11194,270.59949 c -0.59509,-0.21778 -1.36316,-0.76883 -1.32605,-1.25885 0.31708,-4.18152 0.78027,-8.35193 1.28564,-12.94931 1.00794,-0.43021 1.93,-0.43679 3.19812,-0.43929 -0.755,4.78352 -1.8562,9.56297 -3.15771,14.64745 z"
   id="path37" />



<path
   fill="#dfe4e8"
   opacity="1"
   stroke="none"
   d="m 762.12433,252.66403 c -0.12598,-1.2962 -0.0697,-2.91052 0.32172,-4.60667 0.17694,1.37495 0.0187,2.83175 -0.32172,4.60667 z"
   id="path41" />

<path
   fill="#000000"
   opacity="1"
   stroke="none"
   d="m 556.69153,185.76736 c -0.066,-0.89094 0.23834,-1.91043 0.94885,-2.94958 0.0779,0.92723 -0.2503,1.87414 -0.94885,2.94958 z"
   id="path43" />
<path
   fill="#000000"
   opacity="1"
   stroke="none"
   d="m 168.64926,633.75378 c -0.014,0.24231 -0.13219,0.37165 -0.2504,0.50098 0.0487,-0.20465 0.0974,-0.40936 0.2504,-0.50098 z"
   id="path44" />
<path
   fill="#000000"
   opacity="1"
   stroke="none"
   d="m 230.67041,257.75018 c -0.014,0.24613 -0.13484,0.37796 -0.25568,0.50977 0.0496,-0.20804 0.0992,-0.41605 0.25568,-0.50977 z"
   id="path45" />
<path
   fill="#686d7d"
   opacity="1"
   stroke="none"
   d="m 321.06866,802.94232 c 0.31241,0.10388 0.49152,0.33734 0.67066,0.57086 -0.25247,0.0562 -0.50495,0.11249 -0.91187,-0.004 -0.15445,-0.17322 0.10794,-0.43683 0.24121,-0.56647 z"
   id="path46" />

<path
   fill="#000000"
   opacity="1"
   stroke="none"
   d="m 236.99237,179.00568 c 0.11636,0.13169 0.24008,0.25761 0.3638,0.38351 -0.0757,-0.0494 -0.15138,-0.0989 -0.28625,-0.2764 -0.0592,-0.1281 -0.0702,-0.11291 -0.0776,-0.10711 z"
   id="path48" />
<path
   fill="#000000"
   opacity="1"
   stroke="none"
   d="m 229.47887,213.53458 c -0.0261,-0.0554 0.0261,0.0554 0,0 z"
   id="path49" />
<path
   fill="#000000"
   opacity="1"
   stroke="none"
   d="m 230.54777,206.55121 c -0.0552,0.039 0.0552,-0.039 0,0 z"
   id="path50" />
<path
   fill="#000000"
   opacity="1"
   stroke="none"
   d="m 231.53712,201.54581 c -0.0508,0.033 0.0508,-0.033 0,0 z"
   id="path51" />
<path
   fill="#f8fafa"
   opacity="1"
   stroke="none"
   d="m 698.0592,288.67383 c -0.32397,0.14328 -0.6831,-0.001 -1.02734,-0.45944 0.34064,-0.15192 0.66638,0.01 1.02734,0.45944 z"
   id="path52" />
<path
   fill="#f8fafa"
   opacity="1"
   stroke="none"
   d="m 699.35889,289.75574 c -0.22126,0.10318 -0.66877,-0.0422 -1.23413,-0.51917 0.25738,-0.1308 0.63262,0.0699 1.23413,0.51917 z"
   id="path53" />
<path
   fill="#000000"
   opacity="1"
   stroke="none"
   d="m 445.99365,186.00432 c 0.10996,0.14564 0.22595,0.28699 0.34198,0.42834 -0.0794,-0.0547 -0.15881,-0.10946 -0.28256,-0.30412 -0.0443,-0.13994 -0.0533,-0.12853 -0.0594,-0.12422 z"
   id="path54" />
<path
   fill="#102225"
   opacity="1"
   stroke="none"
   d="m 359.60785,557.77685 c -29.2583,8.35151 -57.00967,4.35132 -84.13419,-7.35852 -27.37127,-11.81628 -50.85458,-29.41046 -74.08127,-49.16122 5.10799,-3.48813 9.82874,-6.70938 14.54706,-9.9342 34.50931,-23.58597 65.01877,-51.81943 94.78235,-80.98652 13.42023,-13.1513 26.66062,-26.83923 41.74457,-37.87548 51.19479,-37.45697 111.89911,-6.19971 121.2738,46.8937 2.24723,12.72721 0.71439,25.22345 -1.77642,37.69053 -0.15565,0.77902 -0.95752,1.72021 -1.69715,2.04809 -13.69379,6.06995 -23.33285,16.987 -32.8966,27.84988 -8.68897,9.8693 -16.80417,20.24207 -25.2407,30.33576 -11.14441,13.3335 -22.74826,26.21246 -38.39331,34.49609 -4.38968,2.32422 -9.15274,3.9433 -14.12814,6.00189 m 56.09289,-155.74111 c -2.96029,-4.71274 -7.0151,-8.01947 -12.54614,-9.05805 -8.16788,-1.53375 -16.36722,2.8624 -19.66906,10.31116 -3.33655,7.52695 -0.85523,16.40774 6.08553,21.7803 6.32413,4.8953 15.38727,4.57358 22.12885,-0.78537 6.50992,-5.1748 8.13165,-13.21512 4.00082,-22.24804 m -51.77014,23.81317 c 0.0724,-0.66086 0.075,-1.33844 0.22889,-1.97977 0.84689,-3.52847 1.64044,-7.59973 -2.88993,-8.46387 -1.29355,-0.2467 -4.40671,3.97061 -5.12109,6.57077 -5.42169,19.73337 8.52313,42.43354 28.86838,46.9993 4.27716,0.95987 8.90466,0.92847 13.29458,0.52497 1.67081,-0.15363 3.12726,-2.6392 4.6814,-4.06193 -1.7526,-1.1394 -3.48233,-2.31723 -5.27671,-3.38647 -0.36825,-0.21939 -0.97866,-0.0233 -1.47708,-0.0346 -19.23764,-0.4357 -33.60785,-16.08941 -32.30844,-36.16842 z"
   id="path55" />
<path
   fill="#112224"
   opacity="1"
   stroke="none"
   d="m 599.72253,506.27856 c -11.78735,-12.90606 -23.1314,-25.74987 -35.04632,-38.04025 -3.70825,-3.82516 -8.99823,-6.09949 -13.48139,-9.20331 -1.07574,-0.74481 -2.38385,-1.84301 -2.63641,-2.98794 -7.88861,-35.76221 1.7179,-69.30991 34.90344,-89.61865 26.19373,-16.02991 59.85279,-13.9151 85.92151,6.85067 17.78015,14.16327 33.94507,30.38272 50.56476,45.96799 27.42688,25.71988 54.7898,51.49368 85.75623,73.04566 4.35058,3.02795 8.80621,5.90484 13.60363,9.11264 -2.26617,1.87329 -4.19165,3.60336 -6.255,5.1495 -23.83655,17.86084 -47.37604,36.24359 -75.64362,46.91876 -25.4721,9.61939 -51.32202,12.1579 -77.68536,3.53589 -18.07959,-5.91284 -31.62128,-18.00696 -43.88001,-31.86603 -5.40118,-6.10638 -10.60492,-12.38745 -16.12146,-18.86493 m 39.32654,-83.74813 c 5.27747,-5.7363 6.50055,-12.15036 3.02368,-19.22306 -3.50463,-7.12933 -10.38568,-11.24566 -17.59735,-10.70306 -7.5506,0.56808 -14.6408,6.63797 -16.29486,13.94989 -1.57513,6.96304 2.23126,15.59601 8.50147,19.28158 7.47766,4.39533 14.62988,3.47709 22.36706,-3.30535 m -2.89276,46.333 c 1.71826,-0.61813 3.46588,-1.16571 5.15045,-1.86505 21.87696,-9.0824 27.41321,-32.28543 22.19458,-47.68554 -0.61596,-1.81757 -2.8789,-3.07697 -4.37842,-4.59513 -1.0332,2.01447 -2.72729,3.95902 -2.94958,6.05933 -0.36182,3.41907 0.69476,6.98507 0.35626,10.41031 -1.82733,18.48779 -14.11798,29.73312 -33.12903,30.55972 -2.95794,0.1286 -6.51312,0.362 -6.05072,3.9913 0.21167,1.66092 3.85211,3.82428 6.12299,4.07401 3.875,0.42621 7.89612,-0.47666 12.68347,-0.94895 m -47.99139,-29.95291 c 0.8197,0.0909 1.63726,0.21967 2.45947,0.26627 4.26074,0.24157 6.42981,-2.31842 7.23419,-6.00266 0.91358,-4.18353 -0.87616,-7.46737 -4.57031,-9.5198 -3.3924,-1.88471 -6.44525,-0.76444 -8.9281,1.82025 -3.98157,4.1449 -2.93311,8.41284 3.80475,13.43594 z"
   id="path56" />
<path
   fill="#132427"
   opacity="1"
   stroke="none"
   d="m 465.94147,329.34055 c -13.09211,-15.04996 -28.62274,-25.13279 -48.51566,-27.37262 -4.78961,-0.53928 -9.62982,-0.70057 -14.45257,-0.85849 -8.15067,-0.26697 -14.51313,-5.78196 -14.91669,-13.09629 -0.42001,-7.6127 5.57818,-14.09689 13.741,-14.97741 34.84152,-3.7583 62.80365,9.28457 85.29687,35.23342 4.88437,5.63474 9.22525,11.82065 13.2016,18.13962 3.86899,6.14832 6.94913,12.79306 10.4874,19.42948 5.98764,-13.99384 13.39987,-27.11176 23.75491,-38.44174 21.38361,-23.39698 47.37354,-36.10496 79.53955,-34.69614 2.31696,0.10147 4.71234,0.14343 6.91699,0.76236 7.33564,2.05945 11.79084,8.62311 10.9812,15.7633 -0.70141,6.18631 -6.91693,10.99353 -14.1441,11.91849 -10.18054,1.30304 -20.55664,2.24521 -30.36023,5.05035 -14.32141,4.09785 -25.25726,13.71583 -34.44647,25.53461 0.0872,0.34543 0.0388,0.33417 -0.27918,0.27869 -1.08026,0.9928 -1.84259,2.04111 -2.60492,3.08945 -13.91113,16.76291 -21.29382,36.32177 -24.12866,57.65805 -2.49158,18.75253 -0.37561,37.16851 5.36749,54.97259 -13.87408,0 -27.78036,0 -41.56512,0 1.39456,-7.73395 3.34229,-16.41766 4.4762,-25.20639 3.9851,-30.88727 -2.96222,-59.2095 -20.81424,-84.75925 -2.08182,-2.97955 -4.81803,-5.50186 -7.53537,-8.42208 z"
   id="path57" />
<path
   fill="#142628"
   opacity="1"
   stroke="none"
   d="m 553.42712,553.4032 c 2.03077,-4.62262 4.61811,-8.84424 5.38721,-13.37464 1.12213,-6.6101 4.79596,-11.01251 11.07007,-11.04254 5.96472,-0.0286 10.75079,4.64606 11.16138,11.11579 0.47827,7.53656 -2.79413,13.92859 -6.64911,20.01635 -11.73993,18.53992 -34.50708,25.90192 -52.46546,16.76679 -4.07385,-2.07227 -7.55175,-5.3161 -11.45407,-8.12891 -11.20721,11.62622 -25.18368,15.08154 -40.62851,9.99585 -15.42062,-5.07751 -25.28769,-16.20172 -29.64242,-31.87146 -2.0799,-7.48407 0.0399,-13.43707 5.08737,-16.32934 7.26343,-4.16205 15.22772,-0.0328 15.97162,8.28082 1.30325,14.56457 13.27075,23.64197 26.5372,20.09155 6.32089,-1.69159 10.58307,-5.7055 12.0144,-12.07019 0.93659,-4.16467 1.01071,-8.52325 1.50736,-13.13104 -9.80786,-1.16162 -17.3523,-5.5575 -23.66165,-12.35309 -15.30362,-16.48325 -12.20115,-40.12616 7.50796,-50.8334 14.40247,-7.82425 30.12757,-8.49903 45.37592,-2.60929 15.44159,5.9643 23.44232,20.22818 21.47802,35.6416 -1.76532,13.8523 -15.11486,26.85315 -30.21508,29.42566 -0.47687,0.0812 -0.95423,0.1601 -1.41456,0.23725 -2.0451,12.42407 0.85364,20.04065 9.31904,24.56427 7.17511,3.8341 16.38879,2.21228 23.71331,-4.39203 m -62.49191,-66.35928 c 0,0 -0.0198,0.0363 0.0442,0.7275 3.28488,5.28553 8.05347,8.73182 13.86661,10.61884 10.40207,3.37659 22.3909,-0.49457 26.26816,-10.46436 1.89538,-4.87368 -1.28229,-9.70498 -6.86823,-10.33099 -1.38586,-0.80429 -2.75354,-2.26218 -4.16064,-2.30118 -6.55854,-0.18194 -13.13883,-0.15799 -19.68628,0.22296 -1.73941,0.1012 -3.39002,1.7291 -5.86649,2.56513 -1.52395,0.92117 -3.04791,1.84234 -5.11322,3.27481 -0.14178,1.21972 -0.2836,2.43945 -0.2948,4.07922 0.13901,0.27417 0.35046,0.47019 0.92337,1.0632 0.30844,0.17887 0.61685,0.35773 0.88736,0.54487 z"
   id="path58" />
<path
   fill="#a19fa4"
   opacity="1"
   stroke="none"
   d="m 550.50647,335.12274 c 0.39703,-1.07345 1.15936,-2.12176 2.2522,-3.09906 -0.40863,1.08878 -1.14777,2.10648 -2.2522,3.09906 z"
   id="path59" />






<path
   fill="#f9fbfb"
   opacity="1"
   stroke="none"
   d="m 415.87512,402.3775 c 3.95645,8.69116 2.33472,16.73148 -4.1752,21.90628 -6.74158,5.35895 -15.80472,5.68067 -22.12885,0.78537 -6.94076,-5.37256 -9.42208,-14.25335 -6.08553,-21.7803 3.30184,-7.44876 11.50118,-11.84491 19.66906,-10.31116 5.53104,1.03858 9.58585,4.34531 12.72052,9.39981 z"
   id="path66" />
<path
   fill="#f3f6f7"
   opacity="1"
   stroke="none"
   d="m 363.90137,426.30524 c -1.27018,19.62268 13.10003,35.27639 32.33767,35.71209 0.49842,0.0113 1.10883,-0.18481 1.47708,0.0346 1.79438,1.06924 3.52411,2.24707 5.27671,3.38647 -1.55414,1.42273 -3.01059,3.9083 -4.6814,4.06193 -4.38992,0.4035 -9.01742,0.4349 -13.29458,-0.52497 -20.34525,-4.56576 -34.29007,-27.26593 -28.86838,-46.9993 0.71438,-2.60016 3.82754,-6.81747 5.12109,-6.57077 4.53037,0.86414 3.73682,4.9354 2.88993,8.46387 -0.15391,0.64133 -0.15647,1.31891 -0.25812,2.4361 z"
   id="path67" />
<path
   fill="#f9fbfb"
   opacity="1"
   stroke="none"
   d="m 638.78851,422.7807 c -7.47662,6.53217 -14.62884,7.45041 -22.1065,3.05508 -6.27021,-3.68557 -10.0766,-12.31854 -8.50147,-19.28158 1.65406,-7.31192 8.74426,-13.38181 16.29486,-13.94989 7.21167,-0.5426 14.09272,3.57373 17.59735,10.70306 3.47687,7.0727 2.25379,13.48676 -3.28424,19.47333 z"
   id="path68" />
<path
   fill="#f3f6f7"
   opacity="1"
   stroke="none"
   d="m 635.74255,468.92731 c -4.37359,0.40841 -8.39471,1.31128 -12.26971,0.88507 -2.27088,-0.24973 -5.91132,-2.41309 -6.12299,-4.07401 -0.4624,-3.6293 3.09278,-3.8627 6.05072,-3.9913 19.01105,-0.8266 31.3017,-12.07193 33.12903,-30.55972 0.3385,-3.42524 -0.71808,-6.99124 -0.35626,-10.41031 0.22229,-2.10031 1.91638,-4.04486 2.94958,-6.05933 1.49952,1.51816 3.76246,2.77756 4.37842,4.59513 5.21863,15.40011 -0.31762,38.60314 -22.19458,47.68554 -1.68457,0.69934 -3.43219,1.24692 -5.56421,1.92893 z"
   id="path69" />
<path
   fill="#f3f7f8"
   opacity="1"
   stroke="none"
   d="m 587.79059,438.77093 c -6.36353,-4.88351 -7.41199,-9.15145 -3.43042,-13.29635 2.48285,-2.58469 5.5357,-3.70496 8.9281,-1.82025 3.69415,2.05243 5.48389,5.33627 4.57031,9.5198 -0.80438,3.68424 -2.97345,6.24423 -7.23419,6.00266 -0.82221,-0.0466 -1.63977,-0.17539 -2.8338,-0.40586 z"
   id="path70" />
<path
   fill="#4a5464"
   opacity="1"
   stroke="none"
   d="m 523.93133,474.89169 c 5.40052,0.6417 9.70319,8.41053 7.80781,13.28421 -3.87726,9.96979 -17.11609,13.59095 -27.51816,10.21436 -16.30084,-5.29147 -16.81928,-16.88032 -15.06247,-18.52411 4.24744,-8.04957 26.18757,-6.32489 34.77282,-4.97446 z"
   id="path71"
   sodipodi:nodetypes="csscc" />




<path
   fill="#656c7d"
   opacity="1"
   stroke="none"
   d="m 757.93859,271.85528 c 0.31808,-9.67856 0.93029,-18.97145 0.95184,-28.26572 0.0368,-15.87486 -2.69315,-31.41335 -6.88815,-46.67191 -4.18601,-15.22604 -12.16404,-20.985 -26.05183,-12.6987 0,0 -4.87359,-3.24934 -79.93599,60.27844 0,0 10.36049,9.04873 11.47767,7.79257 51.93235,-58.39295 76.4095,-56.55361 78.2754,-52.92954 6.93229,9.61493 6.33832,20.73338 5.5582,31.72273 -1.04275,14.6899 -4.00729,28.92047 -9.39911,42.63196 -0.53845,1.36932 -1.18606,2.69574 -1.729,3.92035 5.53714,7.26159 10.95087,14.3613 16.97058,22.25577 4.27231,-9.45063 9.24509,-17.83326 10.77039,-28.03595 z"
   id="path76"
   sodipodi:nodetypes="csscsscssccc" /></svg>
